<?xml version="1.0" encoding="UTF-8"?>
<svg  viewBox="0 0 72 72" version="1.1" xmlns="http://www.w3.org/2000/svg" xmlns:xlink="http://www.w3.org/1999/xlink">
    <!-- Generator: Sketch 49.2 (51160) - http://www.bohemiancoding.com/sketch -->
    <title>Wordpress</title>
    <desc>Created with Sketch.</desc>
    <defs></defs>
    <g id="Page-1" stroke="none" stroke-width="1" fill="none" fill-rule="evenodd">
        <g id="Social-Icons---Rounded" transform="translate(-152.000000, -1611.000000)">
            <g id="Wordpress" transform="translate(152.000000, 1611.000000)">
                <path d="M8,72 L64,72 C68.418278,72 72,68.418278 72,64 L72,8 C72,3.581722 68.418278,-8.11624501e-16 64,0 L8,0 C3.581722,8.11624501e-16 -5.41083001e-16,3.581722 0,8 L0,64 C5.41083001e-16,68.418278 3.581722,72 8,72 Z" id="Rounded" fill="#00759D"></path>
                <path d="M12,35.99925 C12,32.5191412 12.7470233,29.216038 14.0775649,26.2324448 L25.5259227,57.598425 C17.5201725,53.7088034 12,45.4990468 12,35.99925 Z M52.2015563,34.7887121 C52.2015563,36.8422763 51.4110316,39.2258508 50.3759992,42.5469546 L47.9804244,50.5452045 L39.3071533,24.7473984 C40.7516985,24.670896 42.0537392,24.5178912 42.0537392,24.5178912 C43.3467796,24.3663864 43.1952749,22.464327 41.9007344,22.5408294 C41.9007344,22.5408294 38.0141129,22.8453389 35.5045345,22.8453389 C33.1464608,22.8453389 29.183337,22.5408294 29.183337,22.5408294 C27.8887965,22.464327 27.7372918,24.4413888 29.0303322,24.5178912 C29.0303322,24.5178912 30.2558705,24.670896 31.5489109,24.7473984 L35.2870277,34.9912185 L30.0338636,50.7432107 L21.2945905,24.7473984 C22.7406356,24.670896 24.0411763,24.5178912 24.0411763,24.5178912 C25.3342167,24.3663864 25.1812119,22.464327 23.8881715,22.5408294 C23.8881715,22.5408294 20.00155,22.8453389 17.4919716,22.8453389 C17.0419576,22.8453389 16.510941,22.8348386 15.9469233,22.816838 C20.2385575,16.3021344 27.6142879,12 35.99955,12 C42.2472452,12 47.936923,14.3880746 52.2060564,18.3001969 C52.1025532,18.2941967 52.0020501,18.2806963 51.8955467,18.2806963 C49.537473,18.2806963 47.8649208,20.3342604 47.8649208,22.5408294 C47.8649208,24.5178912 49.0064565,26.1919435 50.2229945,28.1705053 C51.135023,29.7680553 52.2015563,31.8216194 52.2015563,34.7887121 Z M57.0599081,24.4853402 C58.9334667,27.903947 60,31.8265696 60,35.9997 C60,44.8529767 55.20135,52.5842183 48.0656271,56.7438482 L55.3963561,35.5496859 C56.7658989,32.1250789 57.2219132,29.3874934 57.2219132,26.9529173 C57.2219132,26.0693897 57.1634114,25.2503641 57.0599081,24.4853402 Z M36.4210632,38.0987156 L43.7982937,58.3103472 C43.8462952,58.4288509 43.9062971,58.5368543 43.969299,58.6403575 C41.4747211,59.5178849 38.7941373,60.0009 35.99955,60.0009 C33.6444764,60.0009 31.3704053,59.6558892 29.2193381,59.0228695 L36.4210632,38.0987156 Z" fill="#FFFFFF"></path>
            </g>
        </g>
    </g>
</svg>